<svg width="200" height="60" viewBox="0 0 200 60" fill="none" xmlns="http://www.w3.org/2000/svg">
  <!-- IDP Logo -->
  <rect width="200" height="60" fill="white"/>
  
  <!-- Circle background -->
  <circle cx="30" cy="30" r="22" fill="#1E40AF"/>
  
  <!-- Letter I -->
  <rect x="24" y="18" width="4" height="24" fill="white"/>
  
  <!-- Letter D -->
  <path d="M32 18H36C40.4183 18 44 21.5817 44 26V34C44 38.4183 40.4183 42 36 42H32V18Z" fill="white"/>
  <path d="M36 22H36C37.6569 22 39 23.3431 39 25V37C39 38.6569 37.6569 40 36 40H36V22Z" fill="#1E40AF"/>
  
  <!-- Letter P -->
  <path d="M48 18H52C56.4183 18 60 21.5817 60 26V28C60 32.4183 56.4183 36 52 36H52V42H48V18Z" fill="white"/>
  <path d="M52 22H52C53.6569 22 55 23.3431 55 25V29C55 30.6569 53.6569 32 52 32H52V22Z" fill="#1E40AF"/>
  
  <!-- Text -->
  <text x="70" y="35" font-family="Arial, sans-serif" font-size="20" font-weight="bold" fill="#1E40AF">INMOBILIARIA</text>
  <text x="70" y="50" font-family="Arial, sans-serif" font-size="12" fill="#64748B">DE PROYECTOS</text>
</svg>
